<svg width="136" height="83" viewBox="0 0 136 83" fill="none" xmlns="http://www.w3.org/2000/svg">
<path d="M68.0001 25.752L92.1079 10.4801L93 10.45L85.3432 35.1838L80.1587 34.4502L84.6524 20.6704L68.3058 30.5734H67.6944L62.6117 27.4943L64.3946 23.5557L68.0001 25.752Z" fill="white"/>
<path d="M67.8382 1.98401L68.3763 1.98478L76.5292 18.9703L72.1507 21.6309L68.049 12.739L63.1911 22.8146L63.1945 22.8169L61.3638 26.7381L51.3473 20.6704L55.8413 34.4502L50.6564 35.1838L43 10.45L43.8916 10.4801L58.9046 20.0755L67.8382 1.98401Z" fill="white"/>
<path d="M20.5204 51.4219L30.0604 39.0656H37.8724V64.8079H30.5644V48.3696L20.5204 60.9466H20.1604L10.1164 48.3696V64.8079H3.02441V39.0656H11.0524L20.5204 51.4219Z" fill="white"/>
<path d="M49.6145 39.0656V64.8079H42.2705V39.0656H49.6145Z" fill="white"/>
<path fill-rule="evenodd" clip-rule="evenodd" d="M77.2436 64.8079H85.0556L72.0236 39.0656H63.9956L50.9636 64.8079H58.6676L61.0436 59.8801H74.8676L77.2436 64.8079ZM63.5636 54.5478L67.9556 45.4276L72.3116 54.5478H63.5636Z" fill="white"/>
<path d="M103.841 51.4219L113.381 39.0656H121.193V64.8079H113.885V48.3696L103.841 60.9466H103.481L93.4367 48.3696V64.8079H86.3447V39.0656H94.3727L103.841 51.4219Z" fill="white"/>
<path d="M132.935 64.8079V39.0656H125.591V64.8079H132.935Z" fill="white"/>
<path d="M4.04378 74.4613C4.04378 77.0243 5.78578 78.3523 8.42478 78.3523C10.0108 78.3523 11.3238 77.8211 12.0258 76.5728L13.0658 77.104C12.2078 78.4984 10.6218 79.3881 8.39878 79.3881C5.00578 79.3881 2.92578 77.4758 2.92578 74.4613C2.92578 71.4468 5.00578 69.5345 8.43778 69.5345C10.6218 69.5345 12.2078 70.4376 13.0658 71.8187L12.0258 72.3498C11.3108 71.1148 10.0108 70.5703 8.42478 70.5703C5.78578 70.5703 4.04378 71.8983 4.04378 74.4613Z" fill="white"/>
<path fill-rule="evenodd" clip-rule="evenodd" d="M26.8403 74.4613C26.8403 77.4891 24.7603 79.3881 21.3023 79.3881C17.8443 79.3881 15.7643 77.4891 15.7643 74.4613C15.7643 71.4335 17.8443 69.5345 21.3023 69.5345C24.7603 69.5345 26.8403 71.4335 26.8403 74.4613ZM16.8823 74.4613C16.8823 76.9579 18.6243 78.3523 21.3023 78.3523C23.9803 78.3523 25.7223 76.9579 25.7223 74.4613C25.7223 71.9647 23.9803 70.5703 21.3023 70.5703C18.6243 70.5703 16.8823 71.9647 16.8823 74.4613Z" fill="white"/>
<path d="M39.1924 69.8134V77.4758L31.7694 69.8134H30.5863V79.1093H31.6523V71.2343L39.2963 79.1093H40.2584V69.8134H39.1924Z" fill="white"/>
<path fill-rule="evenodd" clip-rule="evenodd" d="M44.669 69.8134H49.089C52.417 69.8134 54.549 71.6062 54.549 74.4613C54.549 77.3165 52.417 79.1093 49.089 79.1093H44.669V69.8134ZM45.761 78.0734H49.011C51.598 78.0734 53.431 76.8384 53.431 74.4613C53.431 72.0842 51.598 70.8492 49.011 70.8492H45.761V78.0734Z" fill="white"/>
<path fill-rule="evenodd" clip-rule="evenodd" d="M63.1566 79.3881C66.6146 79.3881 68.6945 77.4891 68.6945 74.4613C68.6945 71.4335 66.6146 69.5345 63.1566 69.5345C59.6986 69.5345 57.6186 71.4335 57.6186 74.4613C57.6186 77.4891 59.6986 79.3881 63.1566 79.3881ZM63.1566 78.3523C60.4785 78.3523 58.7366 76.9579 58.7366 74.4613C58.7366 71.9647 60.4785 70.5703 63.1566 70.5703C65.8346 70.5703 67.5766 71.9647 67.5766 74.4613C67.5766 76.9579 65.8346 78.3523 63.1566 78.3523Z" fill="white"/>
<path d="M83.0097 73.4653L87.8327 79.1093H86.4417L82.1257 74.1161L79.0967 76.533V79.1093H78.0047V69.8134H79.0967V75.2581L85.9867 69.8134H87.5467L83.0097 73.4653Z" fill="white"/>
<path d="M91.9479 69.8134H90.8559V79.1093H91.9479V69.8134Z" fill="white"/>
<path d="M104.975 77.4758V69.8134H106.041V79.1093H105.079L97.4352 71.2343V79.1093H96.3692V69.8134H97.5522L104.975 77.4758Z" fill="white"/>
<path d="M120.475 74.2754H115.249V75.3112H119.383V76.5197C118.707 77.8078 117.225 78.3523 115.418 78.3523C112.636 78.3523 110.894 77.0376 110.894 74.4613C110.894 71.8851 112.623 70.5703 115.34 70.5703C116.991 70.5703 118.2 71.1015 119.019 72.1506L119.968 71.4734C119.058 70.3844 117.563 69.5345 115.34 69.5345C111.856 69.5345 109.776 71.4335 109.776 74.4613C109.776 77.4891 111.856 79.3881 115.379 79.3881C117.901 79.3881 119.721 78.2992 120.475 76.8517V74.2754Z" fill="white"/>
<path d="M124.725 72.2436C124.725 73.3989 126.441 73.638 128.586 73.8106C131.355 74.0364 133.279 74.5809 133.279 76.4135C133.279 78.1266 131.576 79.3881 128.612 79.3881C126.623 79.3881 124.712 78.7507 123.295 77.4758L124.062 76.6392C125.388 77.8344 126.857 78.3523 128.677 78.3523C130.874 78.3523 132.161 77.6485 132.161 76.4931C132.161 75.3644 130.822 75.0855 128.365 74.873C125.934 74.6605 123.607 74.1161 123.607 72.2834C123.607 70.5305 125.765 69.5345 128.196 69.5345C130.172 69.5345 131.797 70.2384 132.85 71.1945L131.992 71.9382C131.108 71.0484 129.769 70.5836 128.248 70.5703C126.623 70.5571 124.725 71.0219 124.725 72.2436Z" fill="white"/>
</svg>
